HIERARCHY
ROOT hips
{
  OFFSET 0 10.6860622 2.3727825e-15
  CHANNELS 6 Xposition Yposition Zposition Yrotation Xrotation Zrotation
  JOINT leftUpperLeg
  {
    OFFSET 0.6642549969 -0.9402397400000004 0
    CHANNELS 3 Yrotation Xrotation Zrotation
    JOINT leftLowerLeg
    {
      OFFSET 0 -3.997221335632195 0
      CHANNELS 3 Yrotation Xrotation Zrotation
      JOINT leftFoot
      {
        OFFSET -0.13777839790000004 -4.6145792000000005 -0.22186036399999998
        CHANNELS 3 Yrotation Xrotation Zrotation
        JOINT leftToes
        {
          OFFSET -0.03777410834999995 -0.9130806927000008 0.85230013
          CHANNELS 3 Yrotation Xrotation Zrotation
          End Site
          {
            OFFSET -0.03777410834999995 -0.9130806927000008 0.85230013
          }
        }
      }
    }
  }
  JOINT rightUpperLeg
  {
    OFFSET -0.6642778626 -0.9402397400000004 0
    CHANNELS 3 Yrotation Xrotation Zrotation
    JOINT rightLowerLeg
    {
      OFFSET 0 -3.997221452859387 0
      CHANNELS 3 Yrotation Xrotation Zrotation
      JOINT rightFoot
      {
        OFFSET 0.1377926176 -4.6145792000000005 -0.22185782299999995
        CHANNELS 3 Yrotation Xrotation Zrotation
        JOINT rightToes
        {
          OFFSET 0.037780746850000047 -0.9130806927000008 0.85230167
          CHANNELS 3 Yrotation Xrotation Zrotation
          End Site
          {
            OFFSET 0.037780746850000047 -0.9130806927000008 0.85230167
          }
        }
      }
    }
  }
  JOINT spine
  {
    OFFSET 0 0.13988381660000015 0
    CHANNELS 3 Yrotation Xrotation Zrotation
    JOINT chest
    {
      OFFSET 0 0.6191039003973773 0
      CHANNELS 3 Yrotation Xrotation Zrotation
      JOINT upperChest
      {
        OFFSET 0 0.9855186130586943 0
        CHANNELS 3 Yrotation Xrotation Zrotation
        JOINT leftShoulder
        {
          OFFSET 0.1807663869 1.5087829790000005 0
          CHANNELS 3 Yrotation Xrotation Zrotation
          JOINT leftUpperArm
          {
            OFFSET 0.5985063006419806 0 0
            CHANNELS 3 Yrotation Xrotation Zrotation
            JOINT leftLowerArm
            {
              OFFSET 2.2993332369501065 0 0
              CHANNELS 3 Yrotation Xrotation Zrotation
              JOINT leftHand
              {
                OFFSET 2.395047042602395 0 0
                CHANNELS 3 Yrotation Xrotation Zrotation
                JOINT leftIndexProximal
                {
                  OFFSET 0.5766295810000004 0.04556643899499946 0.17265095988184
                  CHANNELS 3 Yrotation Xrotation Zrotation
                  JOINT leftIndexIntermediate
                  {
                    OFFSET 0.2957229000000008 -0.019352197700001517 -0.007932640616999987
                    CHANNELS 3 Yrotation Xrotation Zrotation
                    JOINT leftIndexDistal
                    {
                      OFFSET 0.19008243099999922 -0.012484908149998475 -0.002786250786000012
                      CHANNELS 3 Yrotation Xrotation Zrotation
                      End Site
                      {
                        OFFSET 0.19008243099999922 -0.012484908149998475 -0.002786250786000012
                      }
                    }
                  }
                }
                JOINT leftMiddleProximal
                {
                  OFFSET 0.5834975091000001 0.0524350405149987 0.02204081888183999
                  CHANNELS 3 Yrotation Xrotation Zrotation
                  JOINT leftMiddleIntermediate
                  {
                    OFFSET 0.33880573540000003 -0.019871473270000717 -0.00000971183179999946
                    CHANNELS 3 Yrotation Xrotation Zrotation
                    JOINT leftMiddleDistal
                    {
                      OFFSET 0.20676022730000088 -0.012221336379999448 0.0001471936708000235
                      CHANNELS 3 Yrotation Xrotation Zrotation
                      End Site
                      {
                        OFFSET 0.20676022730000088 -0.012221336379999448 0.0001471936708000235
                      }
                    }
                  }
                }
                JOINT leftLittleProximal
                {
                  OFFSET 0.5344154683999995 -0.012880921405001189 -0.24414037221816004
                  CHANNELS 3 Yrotation Xrotation Zrotation
                  JOINT leftLittleIntermediate
                  {
                    OFFSET 0.21758961730000093 -0.011650919939999227 0.011893592810000034
                    CHANNELS 3 Yrotation Xrotation Zrotation
                    JOINT leftLittleDistal
                    {
                      OFFSET 0.1475273964999999 -0.008152365682999818 0.006001092492999946
                      CHANNELS 3 Yrotation Xrotation Zrotation
                      End Site
                      {
                        OFFSET 0.1475273964999999 -0.008152365682999818 0.006001092492999946
                      }
                    }
                  }
                }
                JOINT leftRingProximal
                {
                  OFFSET 0.5799399463000003 0.026911854694997794 -0.12150566991816003
                  CHANNELS 3 Yrotation Xrotation Zrotation
                  JOINT leftRingIntermediate
                  {
                    OFFSET 0.26167887460000006 -0.013480186499999602 0.010996293000000053
                    CHANNELS 3 Yrotation Xrotation Zrotation
                    JOINT leftRingDistal
                    {
                      OFFSET 0.17667108799999987 -0.008990287899999228 0.0055541023999999065
                      CHANNELS 3 Yrotation Xrotation Zrotation
                      End Site
                      {
                        OFFSET 0.17667108799999987 -0.008990287899999228 0.0055541023999999065
                      }
                    }
                  }
                }
                JOINT leftThumbProximal
                {
                  OFFSET 0.11018806699999972 -0.09448718900500053 0.17047963138184
                  CHANNELS 3 Yrotation Xrotation Zrotation
                  JOINT leftThumbIntermediate
                  {
                    OFFSET 0.31062601459999983 -0.08126270900000132 0.15443142000000007
                    CHANNELS 3 Yrotation Xrotation Zrotation
                    JOINT leftThumbDistal
                    {
                      OFFSET 0.21627175790000086 -0.08833193599999878 0.018771167799999988
                      CHANNELS 3 Yrotation Xrotation Zrotation
                      End Site
                      {
                        OFFSET 0.21627175790000086 -0.08833193599999878 0.018771167799999988
                      }
                    }
                  }
                }
              }
            }
          }
        }
        JOINT neck
        {
          OFFSET 0 1.5463305265074576 0
          CHANNELS 3 Yrotation Xrotation Zrotation
          JOINT head
          {
            OFFSET 0 0.8456443600000344 0
            CHANNELS 3 Yrotation Xrotation Zrotation
            JOINT leftEye
            {
              OFFSET 0.30408573140000006 0.5104519199999995 0.1276382305
              CHANNELS 3 Yrotation Xrotation Zrotation
              End Site
              {
                OFFSET 0.30408573140000006 0.5104519199999995 0.1276382305
              }
            }
            JOINT rightEye
            {
              OFFSET -0.30409491089999996 0.5104519199999995 0.1276379445
              CHANNELS 3 Yrotation Xrotation Zrotation
              End Site
              {
                OFFSET -0.30409491089999996 0.5104519199999995 0.1276379445
              }
            }
            JOINT jaw
            {
              OFFSET -3.155239131000001e-7 -0.11984121820000082 0.60178107
              CHANNELS 3 Yrotation Xrotation Zrotation
              End Site
              {
                OFFSET -3.155239131000001e-7 -0.11984121820000082 0.60178107
              }
            }
          }
        }
        JOINT rightShoulder
        {
          OFFSET -0.1807303465 1.5087829790000005 0
          CHANNELS 3 Yrotation Xrotation Zrotation
          JOINT rightUpperArm
          {
            OFFSET -0.5985063796536958 0 0
            CHANNELS 3 Yrotation Xrotation Zrotation
            JOINT rightLowerArm
            {
              OFFSET -2.2993322059002854 0 0
              CHANNELS 3 Yrotation Xrotation Zrotation
              JOINT rightHand
              {
                OFFSET -2.395045314457259 0 0
                CHANNELS 3 Yrotation Xrotation Zrotation
                JOINT rightIndexProximal
                {
                  OFFSET -0.5764487688300002 0.0441371204405987 0.17361932004999997
                  CHANNELS 3 Yrotation Xrotation Zrotation
                  JOINT rightIndexIntermediate
                  {
                    OFFSET -0.29573011380000047 -0.01934826376999843 -0.007698921482999974
                    CHANNELS 3 Yrotation Xrotation Zrotation
                    JOINT rightIndexDistal
                    {
                      OFFSET -0.19008373999999884 -0.012503266380000655 -0.0026365778999999897
                      CHANNELS 3 Yrotation Xrotation Zrotation
                      End Site
                      {
                        OFFSET -0.19008373999999884 -0.012503266380000655 -0.0026365778999999897
                      }
                    }
                  }
                }
                JOINT rightMiddleProximal
                {
                  OFFSET -0.5834852037300005 0.05211639405060153 0.02307162440000001
                  CHANNELS 3 Yrotation Xrotation Zrotation
                  JOINT rightMiddleIntermediate
                  {
                    OFFSET -0.33880114510000003 -0.019952774050000954 0.0002455003561999819
                    CHANNELS 3 Yrotation Xrotation Zrotation
                    JOINT rightMiddleDistal
                    {
                      OFFSET -0.20675694929999955 -0.012273788999999091 0.00030209124000002766
                      CHANNELS 3 Yrotation Xrotation Zrotation
                      End Site
                      {
                        OFFSET -0.20675694929999955 -0.012273788999999091 0.00030209124000002766
                      }
                    }
                  }
                }
                JOINT rightLittleProximal
                {
                  OFFSET -0.5346811737299992 -0.011214256288399227 -0.24363941305000003
                  CHANNELS 3 Yrotation Xrotation Zrotation
                  JOINT rightLittleIntermediate
                  {
                    OFFSET -0.21757715980000092 -0.011771559690000988 0.01201554387
                    CHANNELS 3 Yrotation Xrotation Zrotation
                    JOINT rightLittleDistal
                    {
                      OFFSET -0.1475201849000004 -0.00822055339600003 0.006082065407000015
                      CHANNELS 3 Yrotation Xrotation Zrotation
                      End Site
                      {
                        OFFSET -0.1475201849000004 -0.00822055339600003 0.006082065407000015
                      }
                    }
                  }
                }
                JOINT rightRingProximal
                {
                  OFFSET -0.5800810755299999 0.027657985680600072 -0.12066365025000003
                  CHANNELS 3 Yrotation Xrotation Zrotation
                  JOINT rightRingIntermediate
                  {
                    OFFSET -0.26166445029999974 -0.013623118409999302 0.011164098990000045
                    CHANNELS 3 Yrotation Xrotation Zrotation
                    JOINT rightRingDistal
                    {
                      OFFSET -0.17666387530000027 -0.009072900100000503 0.005668185599999959
                      CHANNELS 3 Yrotation Xrotation Zrotation
                      End Site
                      {
                        OFFSET -0.17666387530000027 -0.009072900100000503 0.005668185599999959
                      }
                    }
                  }
                }
                JOINT rightThumbProximal
                {
                  OFFSET -0.10997596379000074 -0.09577489355940072 0.16989765924999997
                  CHANNELS 3 Yrotation Xrotation Zrotation
                  JOINT rightThumbIntermediate
                  {
                    OFFSET -0.31036620999999986 -0.08229339117999834 0.15440884469999996
                    CHANNELS 3 Yrotation Xrotation Zrotation
                    JOINT rightThumbDistal
                    {
                      OFFSET -0.21631306399999906 -0.08825326400000111 0.018656797720000014
                      CHANNELS 3 Yrotation Xrotation Zrotation
                      End Site
                      {
                        OFFSET -0.21631306399999906 -0.08825326400000111 0.018656797720000014
                      }
                    }
                  }
                }
              }
            }
          }
        }
      }
    }
  }
}
MOTION
Frames: 8
Frame Time: 0.03333333333333333
0.7366033937763414 -10.274766579938765 -7.685314994062752 -87.36285819769367 0.006346891600728554 90.0066459541255 9.526057500775925 -27.872893464611824 6.971791592780159 -5.10249257677336 50.948661682134606 -41.14351647371934 11.14784903364458 21.94980834781642 16.682120984165444 0 0 0 -14.348453555181058 -1.539425862339242 12.388078488144892 -44.10323149643673 55.795440734701195 -70.76323157151899 10.501989414791051 10.9224117222246 15.35808049875216 0 0 0 -2.0111571008325804 -13.635514671324678 -12.214257962386238 0.006430847064084926 8.002570374012432 -2.912177795376325 0 0 0 -1.0470409668119731 -12.721991711434994 -1.816861952847858 11.113766208859627 -37.25761147465933 -66.58782550999818 -11.490420613908768 -5.127316973444754 -53.557864694339855 -0.5321422193605088 -5.427927724866556 -42.23262108121784 0 0 0 0 0 0 0 0 0 0 0 0 0 0 0 0 0 0 0 0 0 0 0 0 0 0 0 0 0 0 0 0 0 0 0 0 0 0 0 0 0 0 0 0 0 4.583140129034679 8.80466041695873 -7.654447130726249 11.956302881216695 -4.257937553293328 -2.1217220810261086 0 0 0 0 0 0 0 0 0 8.247280599317534 3.6497281247399025 21.960327371920776 9.641501408964974 -22.030903541306817 57.14025965775805 16.174811406399467 -74.88871850091898 34.13310693978373 2.9659882227470376 32.80631936395499 68.86588359209424 0 0 0 0 0 0 0 0 0 0 0 0 0 0 0 0 0 0 0 0 0 0 0 0 0 0 0 0 0 0 0 0 0 0 0 0 0 0 0 0 0 0 0 0 0
0.7484539861235902 -10.274766579938765 -7.685314994062752 -86.70940944250569 0.005926125848649425 90.00627663449595 9.743125069651892 -28.570140261712837 6.901420687454908 -5.1763177011567745 50.92119255691582 -41.3439468873738 11.16552835498193 22.044592482390645 16.900236513825046 0 0 0 -14.389780131699302 -2.34196409839856 12.619676864499802 -44.403345710619924 55.86522683355958 -71.14018821079073 10.501989414791051 10.9224117222246 15.35808049875216 0 0 0 -2.013916148029784 -13.960654116632044 -12.202420306273146 0.006432459732640465 7.27380938648324 -2.912239361679409 0 0 0 -1.0165725826220677 -12.366616107027655 -2.0229288191179453 11.113766208859627 -37.25761147465933 -66.58782550999818 -11.490420613908768 -5.127316973444754 -53.557864694339855 -0.3935055860553374 -5.277728676376835 -42.24521758833154 0 0 0 0 0 0 0 0 0 0 0 0 0 0 0 0 0 0 0 0 0 0 0 0 0 0 0 0 0 0 0 0 0 0 0 0 0 0 0 0 0 0 0 0 0 4.727944364390231 8.402134200636313 -7.691526087113261 12.338435540173577 -4.385012527894014 -2.203372736667423 0 0 0 0 0 0 0 0 0 8.247280599317534 3.6497281247399025 21.960327371920776 9.641501408964974 -22.030903541306817 57.14025965775805 16.174811406399467 -74.88871850091898 34.13310693978373 2.9659882227470376 32.80631936395499 68.86588359209424 0 0 0 0 0 0 0 0 0 0 0 0 0 0 0 0 0 0 0 0 0 0 0 0 0 0 0 0 0 0 0 0 0 0 0 0 0 0 0 0 0 0 0 0 0
0.7603048468631098 -10.274766579938765 -7.685314994062752 -86.0560453728137 0.0055202682021169135 90.00591396121015 9.962605669939197 -29.267041309462584 6.827558519512623 -5.249948415757862 50.89355555528327 -41.544192108411714 11.183607030595859 22.13930558026791 17.118521287450058 0 0 0 -14.434365042614358 -3.1441555145397015 12.851959155610924 -44.704794453915234 55.933900875420136 -71.51843779011816 10.501989414791051 10.9224117222246 15.35808049875216 0 0 0 -2.016747004244983 -14.285779795870846 -12.190551570966905 0.006435134435037306 6.545169212736415 -2.912302009792902 0 0 0 -0.9874535062659281 -12.011152268346818 -2.228514974213527 11.113766208859627 -37.25761147465933 -66.58782550999818 -11.490420613908768 -5.127316973444754 -53.557864694339855 -0.2549399063670771 -5.127499557856152 -42.257424925438755 0 0 0 0 0 0 0 0 0 0 0 0 0 0 0 0 0 0 0 0 0 0 0 0 0 0 0 0 0 0 0 0 0 0 0 0 0 0 0 0 0 0 0 0 0 4.8729539926330245 7.999455367130996 -7.729621698095729 12.721024941234855 -4.511611533736698 -2.285931815317405 0 0 0 0 0 0 0 0 0 8.247280599317534 3.6497281247399025 21.960327371920776 9.641501408964974 -22.030903541306817 57.14025965775805 16.174811406399467 -74.88871850091898 34.13310693978373 2.9659882227470376 32.80631936395499 68.86588359209424 0 0 0 0 0 0 0 0 0 0 0 0 0 0 0 0 0 0 0 0 0 0 0 0 0 0 0 0 0 0 0 0 0 0 0 0 0 0 0 0 0 0 0 0 0
0.7721557076026297 -10.274766579938765 -7.685314994062752 -85.4028111608447 0.0051082056891615 90.00554410588667 10.184591244959458 -29.9635222579534 6.750120602223413 -5.32337655931078 50.865740147554284 -41.74424567347527 11.202092661157177 22.2339643597582 17.33699236903861 0 0 0 -14.48223682245902 -3.9459066353343064 13.084993682274355 -45.00755969785073 56.001444822899884 -71.89797346227597 10.501989414791051 10.9224117222246 15.35808049875216 0 0 0 -2.0196526764996134 -14.610895965691908 -12.178654040982803 0.006437812713521583 5.8167029171878335 -2.912363677221704 0 0 0 -0.9596767288268008 -11.655621764590826 -2.4336347902496724 11.113766208859627 -37.25761147465933 -66.58782550999818 -11.490420613908768 -5.127316973444754 -53.557864694339855 -0.11643749177691315 -4.977245357430751 -42.26928974074511 0 0 0 0 0 0 0 0 0 0 0 0 0 0 0 0 0 0 0 0 0 0 0 0 0 0 0 0 0 0 0 0 0 0 0 0 0 0 0 0 0 0 0 0 0 5.018180449527519 7.596638110856388 -7.76872934234694 13.104063048157396 -4.6377208100285605 -2.3693950217773065 0 0 0 0 0 0 0 0 0 8.247280599317534 3.6497281247399025 21.960327371920776 9.641501408964974 -22.030903541306817 57.14025965775805 16.174811406399467 -74.88871850091898 34.13310693978373 2.9659882227470376 32.80631936395499 68.86588359209424 0 0 0 0 0 0 0 0 0 0 0 0 0 0 0 0 0 0 0 0 0 0 0 0 0 0 0 0 0 0 0 0 0 0 0 0 0 0 0 0 0 0 0 0 0
0.7840065683421494 -10.274766579938765 -7.685314994062752 -84.74974863535242 0.004699639562991382 90.00515129664164 10.409183080405086 -30.659513557997617 6.669023943619653 -5.396607914754802 50.83777368513945 -41.94413938859876 11.220976993149048 22.328544972155758 17.555628163504295 0 0 0 -14.533408633105083 -4.74711267080248 13.31884958609524 -45.31166845164605 56.06787730839018 -72.27883478264697 10.501989414791051 10.9224117222246 15.35808049875216 0 0 0 -2.022629964734737 -14.93598745060101 -12.16671976564584 0.006442527335781706 5.088474823966527 -2.912425308739874 0 0 0 -0.9332351526474362 -11.300029475651558 -2.638297413016696 11.113766208859627 -37.25761147465933 -66.58782550999818 -11.490420613908768 -5.127316973444754 -53.557864694339855 0.02199569656324241 -4.82696677319785 -42.280759030713426 0 0 0 0 0 0 0 0 0 0 0 0 0 0 0 0 0 0 0 0 0 0 0 0 0 0 0 0 0 0 0 0 0 0 0 0 0 0 0 0 0 0 0 0 0 5.163631039531201 7.193694788713752 -7.80885156260434 13.487537979812663 -4.763333426847429 -2.453757563641636 0 0 0 0 0 0 0 0 0 8.247280599317534 3.6497281247399025 21.960327371920776 9.641501408964974 -22.030903541306817 57.14025965775805 16.174811406399467 -74.88871850091898 34.13310693978373 2.9659882227470376 32.80631936395499 68.86588359209424 0 0 0 0 0 0 0 0 0 0 0 0 0 0 0 0 0 0 0 0 0 0 0 0 0 0 0 0 0 0 0 0 0 0 0 0 0 0 0 0 0 0 0 0 0
0.7958571606893979 -10.274766579938765 -7.685314994062752 -84.09689889303795 0.004291983072851909 90.00475863163719 10.636479598675152 -31.354938521063122 6.584170397995426 -5.469640936314494 50.80965102834934 -42.14384562273476 11.240266023922317 22.423060447145506 17.774442261938987 0 0 0 -14.587898258805511 -5.547677498363506 13.553592522322761 -45.617045577824 56.13316202594707 -72.66092522337165 10.501989414791051 10.9224117222246 15.35808049875216 0 0 0 -2.02568402519529 -15.261047814554663 -12.154743460056457 0.006447272487514639 4.360541297156009 -2.9124871083962063 0 0 0 -0.9081234196606025 -10.944391529478692 -2.842519633701823 11.113766208859627 -37.25761147465933 -66.58782550999818 -11.490420613908768 -5.127316973444754 -53.557864694339855 0.16036550382358708 -4.676665358003684 -42.29187962634761 0 0 0 0 0 0 0 0 0 0 0 0 0 0 0 0 0 0 0 0 0 0 0 0 0 0 0 0 0 0 0 0 0 0 0 0 0 0 0 0 0 0 0 0 0 5.309318107824913 6.790642814300964 -7.8499958575802395 13.871450131866128 -4.888437722987651 -2.5390187107406135 0 0 0 0 0 0 0 0 0 8.247280599317534 3.6497281247399025 21.960327371920776 9.641501408964974 -22.030903541306817 57.14025965775805 16.174811406399467 -74.88871850091898 34.13310693978373 2.9659882227470376 32.80631936395499 68.86588359209424 0 0 0 0 0 0 0 0 0 0 0 0 0 0 0 0 0 0 0 0 0 0 0 0 0 0 0 0 0 0 0 0 0 0 0 0 0 0 0 0 0 0 0 0 0
0.8077080214289178 -10.274766579938765 -7.685314994062752 -83.4442954942652 0.003906514275741946 90.00438116447012 10.86658895068724 -32.0497351017912 6.495469168031586 -5.542473917310261 50.7813724524003 -42.343386188535156 11.25995292268089 22.517494273116707 17.993422857664424 0 0 0 -14.645728027477844 -6.347504902646974 13.789293089305897 -45.923730453747986 56.197323899901086 -73.04430277893755 10.501989414791051 10.9224117222246 15.35808049875216 0 0 0 -2.0288129153330123 -15.586080310564695 -12.14273913406311 0.00645302449980048 3.632957743189667 -2.9125481717900272 0 0 0 -0.8843348118373751 -10.58872481531789 -3.046310577988191 11.113766208859627 -37.25761147465933 -66.58782550999818 -11.490420613908768 -5.127316973444754 -53.557864694339855 0.2986722835577559 -4.526343946817623 -42.30262755754085 0 0 0 0 0 0 0 0 0 0 0 0 0 0 0 0 0 0 0 0 0 0 0 0 0 0 0 0 0 0 0 0 0 0 0 0 0 0 0 0 0 0 0 0 0 5.45525147661757 6.387493475950755 -7.892156399931688 14.255789199572963 -5.013024586307251 -2.6251732687694074 0 0 0 0 0 0 0 0 0 8.247280599317534 3.6497281247399025 21.960327371920776 9.641501408964974 -22.030903541306817 57.14025965775805 16.174811406399467 -74.88871850091898 34.13310693978373 2.9659882227470376 32.80631936395499 68.86588359209424 0 0 0 0 0 0 0 0 0 0 0 0 0 0 0 0 0 0 0 0 0 0 0 0 0 0 0 0 0 0 0 0 0 0 0 0 0 0 0 0 0 0 0 0 0
0.8195588821684376 -10.274766579938765 -7.685314994062752 -82.79199422586547 0.0035094815983312874 90.00398128616143 11.099626683093462 -32.74384619454972 6.402818777359227 -5.615100005046176 50.75292203933976 -42.54271539463274 11.280047519650749 22.611855788387007 18.212580712920346 0 0 0 -14.706923218841318 -7.146493627757361 14.026020909442904 -46.23164431479907 56.26031432883758 -73.4288663709558 10.501989414791051 10.9224117222246 15.35808049875216 0 0 0 -2.032016844861622 -15.91107398563588 -12.130697927680147 0.006458835975802902 2.9057883417932406 -2.912610317393957 0 0 0 -0.8618624513147044 -10.233036575166066 -3.2496829496670037 11.113766208859627 -37.25761147465933 -66.58782550999818 -11.490420613908768 -5.127316973444754 -53.557864694339855 0.4369147368505635 -4.376003658591161 -42.31300558744212 0 0 0 0 0 0 0 0 0 0 0 0 0 0 0 0 0 0 0 0 0 0 0 0 0 0 0 0 0 0 0 0 0 0 0 0 0 0 0 0 0 0 0 0 0 5.601440565604692 5.984264417118982 -7.935338379114901 14.64055478618127 -5.137085312822004 -2.7122181538955474 0 0 0 0 0 0 0 0 0 8.247280599317534 3.6497281247399025 21.960327371920776 9.641501408964974 -22.030903541306817 57.14025965775805 16.174811406399467 -74.88871850091898 34.13310693978373 2.9659882227470376 32.80631936395499 68.86588359209424 0 0 0 0 0 0 0 0 0 0 0 0 0 0 0 0 0 0 0 0 0 0 0 0 0 0 0 0 0 0 0 0 0 0 0 0 0 0 0 0 0 0 0 0 0
